REM DIRINDEX 1\2,1\3,1\4
REM DIRNAME folder01,folder02,folder03,folder04
TITLE ""
FILE "025 025_TOEFL_3900.mp3" MP3
  TRACK 01 AUDIO
    TITLE "2:cjc151_1063"
    INDEX 01 00:00:00
  TRACK 02 AUDIO
    TITLE "0:"
    INDEX 01 00:01:09
  TRACK 03 AUDIO
    TITLE "3:cjc151_1064"
    INDEX 01 00:02:65
  TRACK 04 AUDIO
    TITLE "0:"
    INDEX 01 00:07:51
  TRACK 05 AUDIO
    TITLE "2:cjc151_1065"
    INDEX 01 00:09:28
  TRACK 06 AUDIO
    TITLE "0:"
    INDEX 01 00:10:39
  TRACK 07 AUDIO
    TITLE "3:cjc151_1066"
    INDEX 01 00:12:18
  TRACK 08 AUDIO
    TITLE "0:"
    INDEX 01 00:16:20
  TRACK 09 AUDIO
    TITLE "2:cjc151_1067"
    INDEX 01 00:17:74
  TRACK 10 AUDIO
    TITLE "0:"
    INDEX 01 00:19:05
  TRACK 11 AUDIO
    TITLE "3:cjc151_1068"
    INDEX 01 00:20:59
  TRACK 12 AUDIO
    TITLE "0:"
    INDEX 01 00:24:25
  TRACK 13 AUDIO
    TITLE "2:cjc151_1069"
    INDEX 01 00:26:09
  TRACK 14 AUDIO
    TITLE "0:"
    INDEX 01 00:27:18
  TRACK 15 AUDIO
    TITLE "3:cjc151_1070"
    INDEX 01 00:28:70
  TRACK 16 AUDIO
    TITLE "0:"
    INDEX 01 00:32:23
  TRACK 17 AUDIO
    TITLE "2:cjc151_1071"
    INDEX 01 00:34:00
  TRACK 18 AUDIO
    TITLE "0:"
    INDEX 01 00:35:19
  TRACK 19 AUDIO
    TITLE "3:cjc151_1072"
    INDEX 01 00:36:74
  TRACK 20 AUDIO
    TITLE "0:"
    INDEX 01 00:41:06
  TRACK 21 AUDIO
    TITLE "2:cjc151_1073"
    INDEX 01 00:42:70
  TRACK 22 AUDIO
    TITLE "0:"
    INDEX 01 00:44:03
  TRACK 23 AUDIO
    TITLE "3:cjc151_1074"
    INDEX 01 00:45:57
  TRACK 24 AUDIO
    TITLE "0:"
    INDEX 01 00:48:71
  TRACK 25 AUDIO
    TITLE "2:cjc151_1075"
    INDEX 01 00:50:52
  TRACK 26 AUDIO
    TITLE "0:"
    INDEX 01 00:51:65
  TRACK 27 AUDIO
    TITLE "3:cjc151_1076"
    INDEX 01 00:53:45
  TRACK 28 AUDIO
    TITLE "0:"
    INDEX 01 00:57:25
  TRACK 29 AUDIO
    TITLE "2:cjc151_1077"
    INDEX 01 00:59:10
  TRACK 30 AUDIO
    TITLE "0:"
    INDEX 01 01:00:08
  TRACK 31 AUDIO
    TITLE "3:cjc151_1078"
    INDEX 01 01:01:64
  TRACK 32 AUDIO
    TITLE "0:"
    INDEX 01 01:05:30
  TRACK 33 AUDIO
    TITLE "2:cjc151_1079"
    INDEX 01 01:07:14
  TRACK 34 AUDIO
    TITLE "0:"
    INDEX 01 01:08:21
  TRACK 35 AUDIO
    TITLE "3:cjc151_1080"
    INDEX 01 01:10:02
  TRACK 36 AUDIO
    TITLE "0:"
    INDEX 01 01:14:27
  TRACK 37 AUDIO
    TITLE "2:cjc151_1081"
    INDEX 01 01:16:11
  TRACK 38 AUDIO
    TITLE "0:"
    INDEX 01 01:17:04
  TRACK 39 AUDIO
    TITLE "3:cjc151_1082"
    INDEX 01 01:18:56
  TRACK 40 AUDIO
    TITLE "0:"
    INDEX 01 01:21:69
  TRACK 41 AUDIO
    TITLE "2:cjc151_1083"
    INDEX 01 01:23:56
  TRACK 42 AUDIO
    TITLE "0:"
    INDEX 01 01:25:08
  TRACK 43 AUDIO
    TITLE "3:cjc151_1084"
    INDEX 01 01:26:62
  TRACK 44 AUDIO
    TITLE "0:"
    INDEX 01 01:31:47
  TRACK 45 AUDIO
    TITLE "2:cjc151_1085"
    INDEX 01 01:33:27
  TRACK 46 AUDIO
    TITLE "0:"
    INDEX 01 01:34:28
  TRACK 47 AUDIO
    TITLE "3:cjc151_1086"
    INDEX 01 01:36:09
  TRACK 48 AUDIO
    TITLE "0:"
    INDEX 01 01:39:45
  TRACK 49 AUDIO
    TITLE "2:cjc151_1087"
    INDEX 01 01:41:26
  TRACK 50 AUDIO
    TITLE "0:"
    INDEX 01 01:42:24
  TRACK 51 AUDIO
    TITLE "3:cjc151_1088"
    INDEX 01 01:44:03
  TRACK 52 AUDIO
    TITLE "0:"
    INDEX 01 01:47:62
  TRACK 53 AUDIO
    TITLE "2:cjc151_1089"
    INDEX 01 01:49:41
  TRACK 54 AUDIO
    TITLE "0:"
    INDEX 01 01:50:49
  TRACK 55 AUDIO
    TITLE "3:cjc151_1090"
    INDEX 01 01:52:28
  TRACK 56 AUDIO
    TITLE "0:"
    INDEX 01 01:56:24
  TRACK 57 AUDIO
    TITLE "2:cjc151_1091"
    INDEX 01 01:58:05
  TRACK 58 AUDIO
    TITLE "0:"
    INDEX 01 01:59:03
  TRACK 59 AUDIO
    TITLE "3:cjc151_1092"
    INDEX 01 02:00:59
  TRACK 60 AUDIO
    TITLE "0:"
    INDEX 01 02:05:07
  TRACK 61 AUDIO
    TITLE "2:cjc151_1093"
    INDEX 01 02:06:63
  TRACK 62 AUDIO
    TITLE "0:"
    INDEX 01 02:07:69
  TRACK 63 AUDIO
    TITLE "3:cjc151_1094"
    INDEX 01 02:09:46
  TRACK 64 AUDIO
    TITLE "0:"
    INDEX 01 02:13:34
  TRACK 65 AUDIO
    TITLE "2:cjc151_1095"
    INDEX 01 02:15:15
  TRACK 66 AUDIO
    TITLE "0:"
    INDEX 01 02:16:07
  TRACK 67 AUDIO
    TITLE "3:cjc151_1096"
    INDEX 01 02:17:63
  TRACK 68 AUDIO
    TITLE "0:"
    INDEX 01 02:21:45
  TRACK 69 AUDIO
    TITLE "2:cjc151_1097"
    INDEX 01 02:23:27
  TRACK 70 AUDIO
    TITLE "0:"
    INDEX 01 02:24:30
  TRACK 71 AUDIO
    TITLE "3:cjc151_1098"
    INDEX 01 02:26:11
  TRACK 72 AUDIO
    TITLE "0:"
    INDEX 01 02:29:57
  TRACK 73 AUDIO
    TITLE "2:cjc151_1099"
    INDEX 01 02:31:36
  TRACK 74 AUDIO
    TITLE "0:"
    INDEX 01 02:32:43
  TRACK 75 AUDIO
    TITLE "3:cjc151_1100"
    INDEX 01 02:34:20
  TRACK 76 AUDIO
    TITLE "0:"
    INDEX 01 02:37:33
  TRACK 77 AUDIO
    TITLE "2:cjc151_1101"
    INDEX 01 02:39:12
  TRACK 78 AUDIO
    TITLE "0:"
    INDEX 01 02:40:15
  TRACK 79 AUDIO
    TITLE "3:cjc151_1102"
    INDEX 01 02:41:69
  TRACK 80 AUDIO
    TITLE "0:"
    INDEX 01 02:46:28
  TRACK 81 AUDIO
    TITLE "2:cjc151_1103"
    INDEX 01 02:48:03
  TRACK 82 AUDIO
    TITLE "0:"
    INDEX 01 02:49:22
  TRACK 83 AUDIO
    TITLE "3:cjc151_1104"
    INDEX 01 02:51:03
  TRACK 84 AUDIO
    TITLE "0:"
    INDEX 01 02:55:09
  TRACK 85 AUDIO
    TITLE "2:cjc151_1105"
    INDEX 01 02:56:65
  TRACK 86 AUDIO
    TITLE "0:"
    INDEX 01 02:57:65
  TRACK 87 AUDIO
    TITLE "3:cjc151_1106"
    INDEX 01 02:59:42
  TRACK 88 AUDIO
    TITLE "0:"
    INDEX 01 03:03:03
